<?xml version="1.0" encoding="UTF-8" standalone="no"?>
<!-- Created with Inkscape (http://www.inkscape.org/) -->

<svg
   width="8.5in"
   height="11in"
   viewBox="0 0 215.9 279.4"
   version="1.1"
   id="svg5"
   inkscape:version="1.1 (c68e22c387, 2021-05-23)"
   sodipodi:docname="Sizing_Guide.svg"
   xmlns:inkscape="http://www.inkscape.org/namespaces/inkscape"
   xmlns:sodipodi="http://sodipodi.sourceforge.net/DTD/sodipodi-0.dtd"
   xmlns="http://www.w3.org/2000/svg"
   xmlns:svg="http://www.w3.org/2000/svg">
  <sodipodi:namedview
     id="namedview7"
     pagecolor="#ffffff"
     bordercolor="#666666"
     borderopacity="1.0"
     inkscape:pageshadow="2"
     inkscape:pageopacity="0.0"
     inkscape:pagecheckerboard="0"
     inkscape:document-units="mm"
     showgrid="false"
     showguides="true"
     inkscape:guide-bbox="true"
     inkscape:zoom="1.3879489"
     inkscape:cx="341.87137"
     inkscape:cy="885.11902"
     inkscape:window-width="1920"
     inkscape:window-height="1017"
     inkscape:window-x="1272"
     inkscape:window-y="-8"
     inkscape:window-maximized="1"
     inkscape:current-layer="layer1"
     units="in">
    <sodipodi:guide
       position="12.527066,258.33974"
       orientation="1,0"
       id="guide1913" />
    <sodipodi:guide
       position="38.955773,221.98655"
       orientation="0,-1"
       id="guide8918" />
    <sodipodi:guide
       position="38.955772,221.98656"
       orientation="1,0"
       id="guide8920" />
    <sodipodi:guide
       position="134.97559,204.42696"
       orientation="1,0"
       id="guide9021" />
    <sodipodi:guide
       position="150.42727,204.42697"
       orientation="1,0"
       id="guide9023" />
    <sodipodi:guide
       position="164.96636,205.74072"
       orientation="1,0"
       id="guide9025" />
    <sodipodi:guide
       position="154.18118,154.26252"
       orientation="0,-1"
       id="guide9359" />
    <sodipodi:guide
       position="169.58453,149.57916"
       orientation="0,-1"
       id="guide9361" />
    <sodipodi:guide
       position="138.72951,159.35311"
       orientation="0,-1"
       id="guide9363" />
    <sodipodi:guide
       position="58.415754,205.28421"
       orientation="1,0"
       id="guide9479" />
    <sodipodi:guide
       position="58.415752,248.19898"
       orientation="0,-1"
       id="guide9986" />
    <sodipodi:guide
       position="134.97559,229.62256"
       orientation="0,-1"
       id="guide10900" />
    <sodipodi:guide
       position="102.17715,14.235045"
       orientation="1,0"
       id="guide12086" />
    <sodipodi:guide
       position="102.17715,14.235045"
       orientation="0,-1"
       id="guide12088" />
    <sodipodi:guide
       position="158.41575,14.23505"
       orientation="1,0"
       id="guide12304" />
    <sodipodi:guide
       position="58.415753,20.14455"
       orientation="0,-1"
       id="guide12421" />
  </sodipodi:namedview>
  <defs
     id="defs2">
    <clipPath
       clipPathUnits="userSpaceOnUse"
       id="clipPath838">
      <path
         d="M 344,911 H 5911 V 7395 H 344 V 911"
         id="path836" />
    </clipPath>
    <clipPath
       clipPathUnits="userSpaceOnUse"
       id="clipPath1006">
      <path
         d="m 5058,7266 h 5140 v 5755 H 5058 V 7266"
         id="path1004" />
    </clipPath>
    <clipPath
       clipPathUnits="userSpaceOnUse"
       id="clipPath1172">
      <path
         d="m 172,7666 h 4966 v 5025 H 172 V 7666"
         id="path1170" />
    </clipPath>
    <clipPath
       clipPathUnits="userSpaceOnUse"
       id="clipPath1326">
      <path
         d="M 0,0 H 10199 V 13199 H 0 V 0"
         id="path1324" />
    </clipPath>
    <clipPath
       clipPathUnits="userSpaceOnUse"
       id="clipPath1334">
      <path
         d="M 0,0 H 10199 V 13199 H 0 V 0"
         id="path1332" />
    </clipPath>
  </defs>
  <g
     inkscape:label="Layer 1"
     inkscape:groupmode="layer"
     id="layer1"
     style="display:inline">
    <g
       id="g1320"
       transform="matrix(0.02116667,0,0,-0.02116667,-10.611,284.55033)">
      <g
         id="g1322"
         clip-path="url(#clipPath1326)" />
    </g>
    <g
       id="g1328"
       transform="matrix(0.02116667,0,0,-0.02116667,116.39128,267.63935)">
      <g
         id="g1330"
         clip-path="url(#clipPath1334)">
        <text
           transform="matrix(1,0,0,-1,1490,10188)"
           style="font-variant:normal;font-weight:normal;font-size:283.547px;font-family:Calibri;-inkscape-font-specification:Calibri;writing-mode:lr-tb;fill:#000000;fill-opacity:1;fill-rule:nonzero;stroke:none"
           id="text1338"><tspan
             x="0 130.14807 356.70212 492.52115 557.45343"
             y="0"
             sodipodi:role="line"
             id="tspan1336">Small</tspan></text>
      </g>
    </g>
    <text
       style="font-variant:normal;font-weight:normal;font-size:6.00175px;font-family:Calibri;-inkscape-font-specification:Calibri;writing-mode:lr-tb;fill:#000000;fill-opacity:1;fill-rule:nonzero;stroke:none;stroke-width:0.0211667"
       id="text1350"
       x="162.80272"
       y="64.79039"><tspan
         x="162.80272 167.9342 170.92308 174.07399 175.44839 178.5993"
         y="64.79039"
         sodipodi:role="line"
         id="tspan1348"
         style="stroke-width:0.0211667">Medium</tspan></text>
    <text
       style="font-variant:normal;font-weight:normal;font-size:6.00175px;font-family:Calibri;-inkscape-font-specification:Calibri;writing-mode:lr-tb;fill:#000000;fill-opacity:1;fill-rule:nonzero;stroke:none;stroke-width:0.0211667"
       id="text1354"
       x="177.45161"
       y="78.783409"><tspan
         x="177.45161 179.97234 182.84718 184.94179 187.76862"
         y="78.783409"
         sodipodi:role="line"
         id="tspan1352"
         style="stroke-width:0.0211667">Large</tspan></text>
    <text
       style="font-variant:normal;font-weight:normal;font-size:4.8014px;font-family:Calibri;-inkscape-font-specification:Calibri;writing-mode:lr-tb;fill:#000000;fill-opacity:1;fill-rule:nonzero;stroke:none;stroke-width:0.0211667"
       id="text1360"
       x="75.377396"
       y="226.62991"><tspan
         x="75.377396 77.581253 79.612236 81.912109 83.011635 85.402733 86.487846 89.51754 92.038277 93.137794 95.658531 98.049629 99.149162 100.24868 102.76942"
         y="226.62991"
         sodipodi:role="line"
         id="tspan1358"
         style="stroke-width:0.0211667">Scale Guideline</tspan></text>
    <text
       style="font-variant:normal;font-weight:normal;font-size:4.8014px;font-family:Calibri;-inkscape-font-specification:Calibri;writing-mode:lr-tb;fill:#000000;fill-opacity:1;fill-rule:nonzero;stroke:none;stroke-width:0.0211667"
       id="text1364"
       x="75.504402"
       y="237.02275"><tspan
         x="75.504402 77.842682 80.373016 81.458153 83.489143 86.00988 88.400978 90.431969 92.6166 93.701729 94.801247 96.265678 97.350792 98.959267 101.48 103.8711 104.95621 106.83356 108.86456 111.16444 112.26395 114.65505 115.74018 116.8397 118.71705 119.80216 121.83315 124.3635 126.03919 127.71488 130.10599 132.13698 133.74545"
         y="237.02275"
         sodipodi:role="line"
         id="tspan1362"
         style="stroke-width:0.0211667">To check if the scale is correct,</tspan></text>
    <text
       style="font-variant:normal;font-weight:normal;font-size:4.8014px;font-family:Calibri;-inkscape-font-specification:Calibri;writing-mode:lr-tb;fill:#000000;fill-opacity:1;fill-rule:nonzero;stroke:none;stroke-width:0.0211667"
       id="text1368"
       x="75.462067"
       y="242.31441"><tspan
         x="75.462067 77.070541 79.591278 81.982376 83.067497 84.167015 85.266533 87.78727 90.178383 91.263496 93.784233 96.175331 97.274849 99.805199 103.2382 104.32331 106.20066 108.7214 111.25175 113.77248 114.872 117.39274 118.47785 120.99859 123.38969 124.47482 126.90913 129.34344 131.77776 132.86287 136.6992"
         y="242.31441"
         sodipodi:role="line"
         id="tspan1366"
         style="stroke-width:0.0211667">the line below should be 100 mm</tspan></text>
    <text
       style="font-variant:normal;font-weight:normal;font-size:4.8014px;font-family:Calibri;-inkscape-font-specification:Calibri;writing-mode:lr-tb;fill:#000000;fill-opacity:1;fill-rule:nonzero;stroke:none;stroke-width:0.0211667"
       id="text1372"
       x="75.335068"
       y="247.62724"><tspan
         x="75.335068 77.86541 79.5411 80.626221 83.060524 84.270485 86.704796 89.139107 90.238625 92.759377 93.84449 95.308907 96.984612 99.514946 103.35126 104.43638 106.82749 109.34823 111.86897 112.95408 114.56255 117.09289 118.178 120.5691 123.08985 125.61059"
         y="247.62724"
         sodipodi:role="line"
         id="tspan1370"
         style="stroke-width:0.0211667">or 3.94in from end to end.</tspan></text>
    <g
       id="g12477"
       transform="translate(-1.5327514e-7,-5.9095)">
      <path
         style="fill:none;stroke:#000000;stroke-width:0.5;stroke-linecap:butt;stroke-linejoin:miter;stroke-miterlimit:4;stroke-dasharray:none;stroke-opacity:1"
         d="M 58.415754,265.16495 H 158.41575"
         id="path12123" />
      <path
         style="fill:none;stroke:#000000;stroke-width:0.5;stroke-linecap:butt;stroke-linejoin:miter;stroke-miterlimit:4;stroke-dasharray:none;stroke-opacity:1"
         d="M 58.415753,270.69319 V 259.25545"
         id="path12339" />
      <path
         style="display:inline;fill:none;stroke:#000000;stroke-width:0.5;stroke-linecap:butt;stroke-linejoin:miter;stroke-miterlimit:4;stroke-dasharray:none;stroke-opacity:1"
         d="M 158.41575,270.69319 V 259.25545"
         id="path12339-6" />
    </g>
  </g>
  <g
     inkscape:groupmode="layer"
     id="layer2"
     inkscape:label="Small"
     style="display:inline">
    <g
       id="g8737"
       transform="translate(3.9014848,33.071612)">
      <g
         id="g1240"
         transform="matrix(-0.00495194,-0.02057929,-0.02057929,0.00495194,92.074257,107.73867)" />
      <g
         id="g1246"
         transform="matrix(0.00495194,-0.02057929,-0.02057929,-0.00495194,60.641752,101.2405)" />
      <g
         id="g1254"
         transform="matrix(-0.02116667,0,0,0.02116667,123.4856,101.2405)" />
      <g
         id="g1258"
         transform="matrix(0.02116667,0,0,-0.02116667,54.270585,87.418668)" />
      <g
         id="g1264"
         transform="matrix(-0.00580369,0.02035556,0.02035556,0.00580369,129.85676,87.418668)"
         style="stroke:#00ff00">
        <path
           id="path1266"
           style="fill:none;stroke:#000000;stroke-width:47.2439;stroke-linecap:round;stroke-linejoin:round;stroke-miterlimit:10;stroke-dasharray:none;stroke-opacity:1"
           d="M -10.83047,37.98619 C -27.79835,33.14838 -39.5,17.64408 -39.5,0 m 984.75322,-3455.7455 -81.37924,135.8941 -78.76848,137.6783 -74.92172,138.7751 -72.31094,140.5593 -67.77678,142.8919 -65.16591,144.6762 -61.31927,145.7729 -58.43419,146.5955 -53.90009,148.9281 -51.01501,149.7506 -46.20668,151.1216 -43.59586,152.9059 -40.43666,152.7667 -35.62832,154.1377 -32.743194,154.96 -27.660797,155.3696 -24.775737,156.19222 -20.9289507,157.28847 -17.7697888,157.14968 -12.6873445,157.55924 -9.528143,157.41997 -5.681266,158.51628 -2.522196,158.37746161 M 945.56377,-3454.9608 c 9.30477,-14.991 27.42327,-21.9931 44.39108,-17.1553 M 1007.0225,56.95809 C 929.66676,193.99991 768.4771,260.17923 617.14105,217.03095 M -11.311322,37.849246 616.66038,216.89385 M 1617.7199,-3294.1702 989.74822,-3473.2148 m 628.17798,180.1428 c 151.3363,43.1482 253.3894,184.3822 246.8436,341.6131 m -62.7843,1512.9205 62.4849,-1513.8794 m -62.6787,1515.2562 c -2.5626,61.55 -19.6879,121.6144 -49.9698,175.2611 M 1006.5369,56.653706 1751.8091,-1262.5524" />
      </g>
      <g
         id="g1270"
         transform="matrix(0.02116667,0,0,-0.02116667,117.70709,97.748003)" />
      <g
         id="g1276"
         transform="matrix(0.02116667,0,0,-0.02116667,122.57543,88.815668)" />
      <g
         id="g1282"
         transform="matrix(0.02116667,0,0,-0.02116667,61.551919,88.815668)" />
      <g
         id="g1288"
         transform="matrix(0.02116667,0,0,-0.02116667,66.420253,97.748003)" />
      <g
         id="g1292"
         transform="matrix(0.02116667,0,0,-0.02116667,71.457921,137.75301)" />
      <g
         id="g1298"
         transform="matrix(0.02116667,0,0,-0.02116667,112.66943,137.75301)" />
      <g
         id="g1302"
         transform="matrix(0.02116667,0,0,-0.02116667,132.7566,138.02818)" />
      <g
         id="g1306"
         transform="matrix(-0.02116455,-3.0035505e-4,-3.0035505e-4,0.02116455,112.66943,137.75301)" />
      <g
         id="g1312"
         transform="matrix(-0.00495194,0.02057929,0.02057929,0.00495194,71.457921,137.75301)" />
      <g
         id="g1316"
         transform="matrix(0.02116667,0,0,-0.02116667,51.370751,138.02818)">
        <path
           id="path1318"
           style="fill:none;stroke:#000000;stroke-width:17;stroke-linecap:round;stroke-linejoin:round;stroke-miterlimit:10;stroke-dasharray:none;stroke-opacity:1"
           d="M 316.46814,4.49077 C 313.98795,179.2713 170.28976,318.94833 -4.49077,316.46814 -179.2713,313.98795 -318.94833,170.28976 -316.46814,-4.49077 M 316.56297,4.0262932 C 321.22917,-324.82393 577.13702,-595.22618 905.23196,-617.9844 1233.3269,-640.74256 1524.1171,-408.26187 1574.1413,-83.205242 1624.1655,241.85138 1416.7297,551.00601 1096.9733,627.94813 M 441.50001,786.50019 1096.5,628.50037 m 1651.5282,-0.55225 C 2428.2718,551.00666 2220.8355,241.85264 2270.859,-83.203897 c 50.0235,-325.056553 340.813,-557.537713 668.9078,-534.780233 328.0949,22.75753 584.0031,293.15912 588.67,622.0091104 M 4161.4683,-4.49077 c 2.4802,174.78053 -137.1969,318.47872 -311.9774,320.95891 C 3674.7104,318.94833 3531.0122,179.2713 3528.532,4.49077 M 2896.0001,-1252.4998 c 691.9141,0 1255.5552,555.69954 1265.3726,1247.5439754 M 948.49998,-1251.4996 H 2895.4998 M -316.37259,-4.9558246 C -306.55519,-696.80026 257.08589,-1252.4998 949.00001,-1252.4998 m -1386.50003,3155.5 c 0,-530.7981 363.741943,-992.44837 879.80988,-1116.62791 M -438.50001,2325.5002 v -422 M 272.66128,3220.5868 C -143.78309,3123.71 -438.50001,2752.5643 -438.50001,2325.0002 m 4009.99991,896.5 -171,37 -172.0001,34 -172.9999,29 -172.9998,25 -173.9999,21 -174,17 -175.0001,13 -175.0001,8 -175,4.0002 h -175 l -175,-4.0002 -175,-8 -175,-13 -174,-17 -174.00001,-21 -173,-25 -173.00001,-29 -171.99999,-34 -171.00002,-37 m 4011.00013,-896.5 c 0,427.5641 -294.717,798.7098 -711.1613,895.5866 m 710.1614,-1317.0866 v 422 M 3402.6899,786.37229 c 516.0679,124.17954 879.8099,585.82981 879.8099,1116.62791 M 2747.5001,628.50037 3402.5002,786.50019" />
      </g>
    </g>
    <g
       id="g1178"
       transform="matrix(0.00495194,-0.02057929,-0.02057929,-0.00495194,66.420253,97.748003)" />
    <g
       id="g1184"
       transform="matrix(0.02116667,0,0,-0.02116667,71.457921,137.75301)" />
    <g
       id="g1188"
       transform="matrix(0.02116455,-3.0035505e-4,-3.0035505e-4,-0.02116455,51.370751,138.02818)" />
    <g
       id="g1192"
       transform="matrix(0,-0.02116667,-0.02116667,0,71.457921,137.75301)" />
    <g
       id="g1198"
       transform="matrix(-0.02116455,-3.0035505e-4,-3.0035505e-4,0.02116455,112.66943,137.75301)" />
    <g
       id="g1202"
       transform="matrix(0.02116455,3.0035505e-4,3.0035505e-4,-0.02116455,132.7566,138.02818)" />
    <g
       id="g1206"
       transform="matrix(0.02116667,0,0,-0.02116667,112.66943,137.75301)" />
    <g
       id="g1212"
       transform="matrix(-0.01690286,-0.01274064,-0.01274064,0.01690286,117.70709,97.748003)" />
    <g
       id="g1216"
       transform="matrix(-0.02116667,0,0,0.02116667,117.70709,97.748003)" />
    <g
       id="g1222"
       transform="matrix(-0.00479594,0.02061612,0.02061612,0.00479594,122.57543,88.815668)" />
    <g
       id="g1228"
       transform="matrix(0.02116667,0,0,-0.02116667,61.551919,88.815668)" />
    <g
       id="g1234"
       transform="matrix(0.0191406,-0.00903711,-0.00903711,-0.0191406,66.420253,97.748003)" />
    <path
       style="fill:none;stroke:#000000;stroke-width:2;stroke-linecap:butt;stroke-linejoin:miter;stroke-miterlimit:4;stroke-dasharray:none;stroke-opacity:1"
       d="m 58.03449,117.96562 6e-6,-67.74479"
       id="path9882"
       sodipodi:nodetypes="cc" />
    <path
       style="display:inline;fill:none;stroke:#000000;stroke-width:2;stroke-linecap:butt;stroke-linejoin:miter;stroke-miterlimit:4;stroke-dasharray:none;stroke-opacity:1"
       d="M 134.59433,117.96562 V 50.220837 h 10.31701"
       id="path9882-8"
       sodipodi:nodetypes="ccc" />
    <path
       style="display:inline;fill:none;stroke:#000000;stroke-width:2;stroke-linecap:butt;stroke-linejoin:miter;stroke-miterlimit:4;stroke-dasharray:none;stroke-opacity:1"
       d="M 150.04601,117.96562 V 62.992981 h 10.31701"
       id="path9882-0"
       sodipodi:nodetypes="ccc" />
    <path
       style="display:inline;fill:none;stroke:#000000;stroke-width:2;stroke-linecap:butt;stroke-linejoin:miter;stroke-miterlimit:4;stroke-dasharray:none;stroke-opacity:1"
       d="M 164.5851,117.96562 V 76.718263 l 10.31701,-10e-7"
       id="path9882-03"
       sodipodi:nodetypes="ccc" />
  </g>
  <g
     inkscape:groupmode="layer"
     id="layer3"
     inkscape:label="Medium"
     style="display:inline">
    <g
       id="g1000"
       transform="matrix(0,0.02116667,0.02116667,0,-111.0237,-9.547156)">
      <g
         id="g1002"
         clip-path="url(#clipPath1006)">
        <g
           id="g1016"
           transform="matrix(-0.42695,0.90428,-0.90428,-0.42695,6873.5,8567.5)" />
        <g
           id="g1020"
           transform="matrix(-0.97225,0.23395,-0.23395,-0.97225,6873.5,8567.5)" />
        <g
           id="g1024"
           transform="rotate(90,-1055.5,7448)" />
        <g
           id="g1030"
           transform="matrix(0.99308,-0.11746,0.11746,0.99308,6392.5,11784.5)" />
        <g
           id="g1036"
           transform="matrix(0.55732,0.8303,-0.8303,0.55732,6392.5,8503.5)" />
        <g
           id="g1040"
           transform="rotate(-90,9297,2423.5)" />
        <g
           id="g1046"
           transform="matrix(0.31259,-0.94989,0.94989,0.31259,6392.5,11784.5)" />
        <g
           id="g1052"
           transform="rotate(90,-160,9010.5)" />
        <g
           id="g1056"
           transform="matrix(-0.01419,0.9999,-0.9999,-0.01419,8863.5,8221.5)" />
        <g
           id="g1060"
           transform="rotate(180,4425.25,4585.25)" />
        <g
           id="g1066"
           transform="matrix(-0.01419,-0.9999,0.9999,-0.01419,8850.5,11117.5)" />
        <g
           id="g1070"
           transform="matrix(0.01419,0.9999,-0.9999,0.01419,8863.5,12066.5)" />
        <g
           id="g1074"
           transform="rotate(90,-1133.5,9984)" />
        <g
           id="g1080"
           transform="matrix(-0.60192,-0.79856,0.79856,-0.60192,6873.5,11720.5)" />
        <g
           id="g1086"
           transform="matrix(-0.97225,-0.23395,0.23395,-0.97225,7432.5,10144.5)" />
        <g
           id="g1092"
           transform="matrix(-0.97225,0.23395,-0.23395,-0.97225,7037.5,8294.5)" />
        <g
           id="g1100"
           transform="rotate(-90,9515.5,2478)" />
        <g
           id="g1104"
           transform="rotate(90,-925,7068.5)" />
        <g
           id="g1110"
           transform="matrix(0.98861,-0.15052,0.15052,0.98861,6143.5,12294.5)">
          <path
             id="path1112"
             style="fill:none;stroke:#000000;stroke-width:47.2439;stroke-linecap:round;stroke-linejoin:round;stroke-miterlimit:10;stroke-dasharray:none;stroke-opacity:1"
             d="M -5.94565,39.04996 C -25.24256,36.11186 -39.5,19.5193 -39.5,0 m 647.82254,-4264.508 -69.43608,230.1701 -65.63219,231.7608 -61.67777,232.3629 -58.71195,232.8144 -53.91946,234.5556 -49.96504,235.1577 -46.16114,236.7484 -42.05621,236.3619 -38.25231,237.9525 -34.147375,237.566 -30.192959,238.1681 -26.389062,239.7588 -22.284126,239.3722 -18.32971,239.97436 -13.236171,239.73831 -10.270358,240.18987 -6.315942,240.79194 -2.211007,240.40541895 M 609.67262,-4263.7417 c 5.80917,-18.6348 24.35866,-30.2323 43.65552,-27.2942 M 1244.4061,-34.424537 C 1184.9802,111.29091 1033.4408,197.30077 877.86653,173.61393 M -6.4398063,38.974601 877.37223,173.53867 M 1536.7964,-4157.5357 652.98436,-4292.0998 m 884.15554,135.6274 c 155.5745,23.6867 274.6503,150.8989 288.0174,307.6975 m 160.8791,1882.8209 -161.2975,-1883.7343 m 161.2795,1885.1246 c 5.2326,61.3808 -4.1686,123.1273 -27.4317,180.1694 M 1243.8857,-34.665167 1958.4914,-1785.0395" />
        </g>
        <g
           id="g1116"
           transform="rotate(90,-2423.5,9297)" />
        <g
           id="g1122"
           transform="rotate(90,-2696,9088.5)" />
        <g
           id="g1128"
           transform="rotate(90,-1055.5,7448)" />
        <g
           id="g1134"
           transform="rotate(90,-847,7720.5)" />
        <g
           id="g1138"
           transform="rotate(90,-160,9010.5)" />
        <g
           id="g1144"
           transform="rotate(90,-1133.5,9984)" />
        <g
           id="g1148"
           transform="rotate(90,-1601.5,10465)" />
        <g
           id="g1152"
           transform="matrix(-0.01419,-0.9999,0.9999,-0.01419,8850.5,11117.5)" />
        <g
           id="g1158"
           transform="matrix(0.97225,-0.23395,0.23395,0.97225,8850.5,9170.5)" />
        <g
           id="g1162"
           transform="rotate(90,321,8542.5)">
          <path
             id="path1164"
             style="fill:none;stroke:#000000;stroke-width:17;stroke-linecap:round;stroke-linejoin:round;stroke-miterlimit:10;stroke-dasharray:68, 17;stroke-dashoffset:15.3;stroke-opacity:1"
             d="M 316.46814,4.49077 C 313.98795,179.2713 170.28976,318.94833 -4.49077,316.46814 -179.2713,313.98795 -318.94833,170.28976 -316.46814,-4.49077 M 316.5628,4.0261722 C 321.22898,-324.82414 577.13688,-595.22647 905.2319,-617.98471 c 328.095,-22.75819 618.8853,209.72255 668.9096,534.779252 50.0242,325.056698 -157.4117,634.211418 -477.1681,711.153578 M 76.5,874.5 l 1020,-246 m 1651.528,-0.55194 c -319.7564,-76.94147 -527.1928,-386.09554 -477.1693,-711.152129 50.0236,-325.056601 340.8132,-557.537801 668.908,-534.780321 328.0949,22.75754 584.0032,293.15917 588.67,622.009215 m 633.0314,-8.515595 c 2.4802,174.78053 -137.1968,318.47872 -311.9773,320.95891 C 3674.7102,318.94833 3531.012,179.2713 3528.5319,4.49077 M 2896,-1252.5 c 691.9141,0 1255.5552,555.69958 1265.3726,1247.54402 M 948.5,-1251.5 h 1947 M -316.3726,-4.95598 C -306.5552,-696.80042 257.08588,-1252.5 949,-1252.5 M -802.5,1990 c 0,-530.7981 363.74194,-992.44836 879.80988,-1116.6279 M -803.5,2471.5 v -481 M 154.49583,3548.9856 C -391.87897,3484.3603 -803.5,3021.1835 -803.5,2471 m 4493,1078.5 -235,26 -235,22 -235,18 -236,15 -236,11 -236,8 -236,3 h -237 l -236,-3 -236,-8 -236,-11 -236,-15 -235,-18 -235,-22 -235,-26 M 4648.5,2471 c 0,550.1835 -411.621,1013.3603 -957.9958,1077.9856 M 4647.5,1990.5 v 481 M 3767.6901,873.3721 C 4283.7581,997.55164 4647.5,1459.2019 4647.5,1990 m -1900,-1361.5 1020,246" />
        </g>
      </g>
    </g>
  </g>
  <g
     inkscape:groupmode="layer"
     id="layer4"
     inkscape:label="Large"
     style="display:inline">
    <g
       id="g832"
       transform="matrix(1.300664e-4,0.02116627,0.02116627,-1.300664e-4,23.128695,90.063829)">
      <g
         id="g834"
         clip-path="url(#clipPath838)">
        <g
           id="g850"
           transform="matrix(0.63105,0.77574,-0.77574,0.63105,1769.5,2222.5)" />
        <g
           id="g854"
           transform="rotate(90,-226.5,1996)" />
        <g
           id="g858"
           transform="matrix(0.29652,-0.95503,0.95503,0.29652,1769.5,6084.5)" />
        <g
           id="g862"
           transform="matrix(0.99308,-0.11746,0.11746,0.99308,1769.5,6084.5)" />
        <g
           id="g868"
           transform="rotate(-90,4262,1833.5)" />
        <g
           id="g874"
           transform="matrix(-0.97225,0.23395,-0.23395,-0.97225,2428.5,2211.5)" />
        <g
           id="g880"
           transform="rotate(90,657,3837.5)" />
        <g
           id="g884"
           transform="matrix(-0.01419,0.9999,-0.9999,-0.01419,4507.5,2231.5)" />
        <g
           id="g888"
           transform="rotate(180,2247.25,1590.25)" />
        <g
           id="g894"
           transform="matrix(-0.01419,-0.9999,0.9999,-0.01419,4494.5,5126.5)" />
        <g
           id="g898"
           transform="matrix(0.01419,0.9999,-0.9999,0.01419,4507.5,6075.5)" />
        <g
           id="g902"
           transform="rotate(90,-316,4810.5)" />
        <g
           id="g908"
           transform="matrix(-0.60192,-0.79856,0.79856,-0.60192,2428.5,6095.5)" />
        <g
           id="g914"
           transform="matrix(-0.97225,-0.23395,0.23395,-0.97225,3076.5,4153.5)" />
        <g
           id="g920"
           transform="matrix(-0.97225,0.23395,-0.23395,-0.97225,2593.5,1939.5)" />
        <g
           id="g928"
           transform="rotate(-90,4480.5,1887)" />
        <g
           id="g932"
           transform="rotate(90,-91.5,1547)" />
        <g
           id="g938"
           transform="matrix(0.98878,-0.14939,0.14939,0.98878,1455.5,6668.5)">
          <path
             id="path940"
             style="fill:none;stroke:#000000;stroke-width:47.244;stroke-linecap:round;stroke-linejoin:round;stroke-miterlimit:10;stroke-dasharray:none;stroke-opacity:1"
             d="M -5.90072,39.05677 C -25.21803,36.1383 -39.5,19.53653 -39.5,0 m 752.8436,-4985.8751 -77.01235,255.3602 -73.05724,255.9579 -68.26275,257.6935 -64.30764,258.2911 -60.35253,258.8887 -56.54682,260.475 -52.59171,261.0726 -47.79721,262.8082 -43.69272,262.4171 -39.73761,263.0146 -35.782502,263.6122 -31.976786,265.1985 -26.883512,264.9567 -22.928405,265.5543 -18.8239091,265.163 -14.8688019,265.76056 -10.913694,266.35814 -5.820421,266.11632 -1.865314,266.71386651 M 713.69233,-4985.2164 c 5.77152,-18.6645 24.32054,-30.306 43.63781,-27.3875 M 1485.6292,0.60447942 C 1426.3698,146.38793 1274.9286,232.57103 1119.3271,209.06195 M -6.3952741,38.981988 1118.8327,208.98725 M 1882.2131,-4843.6621 756.98514,-5013.6673 m 1125.57276,171.0682 c 155.6017,23.509 274.8228,150.5851 288.3691,307.3686 m 194.5272,2256.5388 -194.9466,-2257.4517 m 196.0684,2258.0027 c 5.3027,61.3748 -4.028,123.1321 -27.2259,180.2009 M 1485.1085,0.36444381 2338.2653,-2098.7344" />
        </g>
        <path
           d="M 3878,4978 3545,6363"
           style="fill:none;stroke:#000000;stroke-width:17;stroke-linecap:round;stroke-linejoin:round;stroke-miterlimit:10;stroke-dasharray:none;stroke-opacity:1"
           id="path942" />
        <g
           id="g944"
           transform="rotate(90,-1833.5,4262)">
          <path
             d="M 268.69012,-1116.6279 C 784.75806,-992.44836 1148.5,-530.7981 1148.5,0"
             style="fill:none;stroke:#000000;stroke-width:17;stroke-linecap:round;stroke-linejoin:round;stroke-miterlimit:10;stroke-dasharray:none;stroke-opacity:1"
             id="path946" />
        </g>
        <path
           d="M 2428,7243 H 1769"
           style="fill:none;stroke:#000000;stroke-width:17;stroke-linecap:round;stroke-linejoin:round;stroke-miterlimit:10;stroke-dasharray:none;stroke-opacity:1"
           id="path948" />
        <g
           id="g950"
           transform="rotate(90,-2157.5,3927)">
          <path
             d="m 1159.5,0 c 0,587.69025 -439.68176,1082.4425 -1023.30371,1151.4733"
             style="fill:none;stroke:#000000;stroke-width:17;stroke-linecap:round;stroke-linejoin:round;stroke-miterlimit:10;stroke-dasharray:none;stroke-opacity:1"
             id="path952" />
        </g>
        <path
           d="m 618,6220 -29,-257 -24,-258 -21,-258 -17,-259 -14,-258 -9,-259 -6,-259 -2,-259 2,-259 6,-259 9,-259 14,-258 17,-259 21,-258 24,-258 29,-257"
           style="fill:none;stroke:#000000;stroke-width:17;stroke-linecap:round;stroke-linejoin:round;stroke-miterlimit:10;stroke-dasharray:none;stroke-opacity:1"
           id="path954" />
        <g
           id="g956"
           transform="rotate(90,-226.5,1996)">
          <path
             d="M -136.19629,1151.4733 C -719.81824,1082.4425 -1159.5,587.69025 -1159.5,0"
             style="fill:none;stroke:#000000;stroke-width:17;stroke-linecap:round;stroke-linejoin:round;stroke-miterlimit:10;stroke-dasharray:none;stroke-opacity:1"
             id="path958" />
        </g>
        <path
           d="m 1769,1063 h 659"
           style="fill:none;stroke:#000000;stroke-width:17;stroke-linecap:round;stroke-linejoin:round;stroke-miterlimit:10;stroke-dasharray:none;stroke-opacity:1"
           id="path960" />
        <g
           id="g962"
           transform="rotate(90,108.5,2320)">
          <path
             d="m -1148.5,0 c 0,-530.7981 363.74194,-992.44836 879.80988,-1116.6279"
             style="fill:none;stroke:#000000;stroke-width:17;stroke-linecap:round;stroke-linejoin:round;stroke-miterlimit:10;stroke-dasharray:none;stroke-opacity:1"
             id="path964" />
        </g>
        <g
           id="g966"
           transform="rotate(90,657,3837.5)">
          <path
             d="M -1265.3726,-17.95598 C -1255.5552,-709.80042 -691.91412,-1265.5 0,-1265.5"
             style="fill:none;stroke:#000000;stroke-width:17;stroke-linecap:round;stroke-linejoin:round;stroke-miterlimit:10;stroke-dasharray:none;stroke-opacity:1"
             id="path968" />
        </g>
        <path
           d="M 5759,3180 V 5126"
           style="fill:none;stroke:#000000;stroke-width:17;stroke-linecap:round;stroke-linejoin:round;stroke-miterlimit:10;stroke-dasharray:none;stroke-opacity:1"
           id="path970" />
        <g
           id="g972"
           transform="rotate(90,-316,4810.5)">
          <path
             d="m 0,-1265.5 c 691.91412,0 1255.5552,555.69958 1265.3726,1247.54402"
             style="fill:none;stroke:#000000;stroke-width:17;stroke-linecap:round;stroke-linejoin:round;stroke-miterlimit:10;stroke-dasharray:none;stroke-opacity:1"
             id="path974" />
        </g>
        <g
           id="g976"
           transform="rotate(90,-784,5291.5)">
          <path
             d="M 316.46814,-4.49077 C 318.94833,170.28976 179.2713,313.98795 4.49077,316.46814 -170.28976,318.94833 -313.98795,179.2713 -316.46814,4.49077"
             style="fill:none;stroke:#000000;stroke-width:17;stroke-linecap:round;stroke-linejoin:round;stroke-miterlimit:10;stroke-dasharray:none;stroke-opacity:1"
             id="path978" />
        </g>
        <g
           id="g980"
           transform="matrix(-0.01419,-0.9999,0.9999,-0.01419,4494.5,5126.5)">
          <path
             d="M 156.68307,-612.78601 C 475.31528,-531.315 678.34375,-219.24875 623.71277,105.06506 569.08173,429.37888 275.02274,657.71021 -52.71595,630.29938 -380.45462,602.88849 -632.5,328.88293 -632.5,0"
             style="fill:none;stroke:#000000;stroke-width:17;stroke-linecap:round;stroke-linejoin:round;stroke-miterlimit:10;stroke-dasharray:none;stroke-opacity:1"
             id="path982" />
        </g>
        <path
           d="m 3545,1943 333,1385"
           style="fill:none;stroke:#000000;stroke-width:17;stroke-linecap:round;stroke-linejoin:round;stroke-miterlimit:10;stroke-dasharray:none;stroke-opacity:1"
           id="path984" />
        <g
           id="g986"
           transform="matrix(0.97225,-0.23395,0.23395,0.97225,4494.5,3180.5)">
          <path
             d="M 156.68307,-612.78601 C 475.31528,-531.315 678.34375,-219.24875 623.71277,105.06506 569.08173,429.37888 275.02274,657.71021 -52.71595,630.29938 -380.45462,602.88849 -632.5,328.88293 -632.5,0"
             style="fill:none;stroke:#000000;stroke-width:17;stroke-linecap:round;stroke-linejoin:round;stroke-miterlimit:10;stroke-dasharray:none;stroke-opacity:1"
             id="path988" />
        </g>
        <g
           id="g990"
           transform="rotate(90,1138,3369.5)">
          <path
             d="M 316.46814,4.49077 C 313.98795,179.2713 170.28976,318.94833 -4.49077,316.46814 -179.2713,313.98795 -318.94833,170.28976 -316.46814,-4.49077"
             style="fill:none;stroke:#000000;stroke-width:17;stroke-linecap:round;stroke-linejoin:round;stroke-miterlimit:10;stroke-dasharray:none;stroke-opacity:1"
             id="path992" />
        </g>
        <g
           id="g996"
           transform="matrix(-0.42695,0.90428,-0.90428,-0.42695,2428.5,2211.5)" />
      </g>
    </g>
  </g>
</svg>
